<svg width="28" height="30" viewBox="0 0 28 30" fill="none" xmlns="http://www.w3.org/2000/svg">
<path d="M26 15V24.5C26 26.3856 26 27.3284 25.4142 27.9142C24.8284 28.5 23.8856 28.5 22 28.5H5.75C5.05302 28.5 4.70453 28.5 4.41473 28.4424C3.22466 28.2056 2.29436 27.2753 2.05764 26.0853C2 25.7955 2 25.447 2 24.75V24.75C2 24.053 2 23.7045 2.05764 23.4147C2.29436 22.2247 3.22466 21.2944 4.41473 21.0576C4.70453 21 5.05302 21 5.75 21H22C23.8856 21 24.8284 21 25.4142 20.4142C26 19.8284 26 18.8856 26 17V5.5C26 3.61438 26 2.67157 25.4142 2.08579C24.8284 1.5 23.8856 1.5 22 1.5H6C4.11438 1.5 3.17157 1.5 2.58579 2.08579C2 2.67157 2 3.61438 2 5.5V24.75" stroke="#9A9A9A" stroke-width="3"/>
<path d="M9.5 9L18.5 9" stroke="#9A9A9A" stroke-width="3" stroke-linecap="round"/>
</svg>
