<svg width="60" height="70" viewBox="0 0 60 70" fill="none" xmlns="http://www.w3.org/2000/svg">
<g style="mix-blend-mode:soft-light">
<path d="M39.638 52.6357L32.7149 48.2946L52.5339 36.4922V13.1589L60 17.5V41.376L39.638 52.6357Z" fill="white"/>
<path d="M19.5475 52.6357V43.5465L39.638 55.6202L60 43.5465V52.6357L39.638 64.3023L19.5475 52.6357Z" fill="white"/>
<path d="M17.3756 53.9922V30.5233L9.36652 35.1357V58.469L30.1357 70L36.9231 65.2519L17.3756 53.9922Z" fill="white"/>
<path d="M7.46606 33.7791V56.7054L0 52.6357V28.7597L19.5475 17.5L27.2851 21.8411L7.46606 33.7791Z" fill="white"/>
<path d="M0 17.5V26.4535L19.5475 15.0581L39.638 26.4535V17.5L19.5475 5.83333L0 17.5Z" fill="white"/>
<path d="M29.7285 0L22.5339 4.34109L42.6244 16.2791V39.4767L50.2262 35.1357V11.531L29.7285 0Z" fill="white"/>
</g>
</svg>
