<svg width="221" height="258" viewBox="0 0 221 258" fill="none" xmlns="http://www.w3.org/2000/svg">
<path d="M146 194L120.5 178L193.5 134.5V48.5L221 64.5V152.5L146 194Z" fill="url(#paint0_linear_54_12)"/>
<path d="M72 194V160.5L146 205L221 160.5V194L146 237L72 194Z" fill="url(#paint1_linear_54_12)"/>
<path d="M64 199V112.5L34.5 129.5V215.5L111 258L136 240.5L64 199Z" fill="url(#paint2_linear_54_12)"/>
<path d="M27.5 124.5V209L0 194V106L72 64.5L100.5 80.5L27.5 124.5Z" fill="url(#paint3_linear_54_12)"/>
<path d="M0 64.5V97.5L72 55.5L146 97.5V64.5L72 21.5L0 64.5Z" fill="url(#paint4_linear_54_12)"/>
<path d="M109.5 0L83 16L157 60V145.5L185 129.5V42.5L109.5 0Z" fill="url(#paint5_linear_54_12)"/>
<defs>
<linearGradient id="paint0_linear_54_12" x1="221.5" y1="142.5" x2="0.500006" y2="142.5" gradientUnits="userSpaceOnUse">
<stop stop-color="#19103F"/>
<stop offset="0.5" stop-color="#2E0D3F"/>
<stop offset="1" stop-color="#201824"/>
</linearGradient>
<linearGradient id="paint1_linear_54_12" x1="221.5" y1="142.5" x2="0.500006" y2="142.5" gradientUnits="userSpaceOnUse">
<stop stop-color="#19103F"/>
<stop offset="0.5" stop-color="#2E0D3F"/>
<stop offset="1" stop-color="#201824"/>
</linearGradient>
<linearGradient id="paint2_linear_54_12" x1="221.5" y1="142.5" x2="0.500006" y2="142.5" gradientUnits="userSpaceOnUse">
<stop stop-color="#19103F"/>
<stop offset="0.5" stop-color="#2E0D3F"/>
<stop offset="1" stop-color="#201824"/>
</linearGradient>
<linearGradient id="paint3_linear_54_12" x1="221.5" y1="142.5" x2="0.500006" y2="142.5" gradientUnits="userSpaceOnUse">
<stop stop-color="#19103F"/>
<stop offset="0.5" stop-color="#2E0D3F"/>
<stop offset="1" stop-color="#201824"/>
</linearGradient>
<linearGradient id="paint4_linear_54_12" x1="221.5" y1="142.5" x2="0.500006" y2="142.5" gradientUnits="userSpaceOnUse">
<stop stop-color="#19103F"/>
<stop offset="0.5" stop-color="#2E0D3F"/>
<stop offset="1" stop-color="#201824"/>
</linearGradient>
<linearGradient id="paint5_linear_54_12" x1="221.5" y1="142.5" x2="0.500006" y2="142.5" gradientUnits="userSpaceOnUse">
<stop stop-color="#19103F"/>
<stop offset="0.5" stop-color="#2E0D3F"/>
<stop offset="1" stop-color="#201824"/>
</linearGradient>
</defs>
</svg>
