<svg width="30" height="29" viewBox="0 0 30 29" fill="none" xmlns="http://www.w3.org/2000/svg">
<path d="M24 1.75H24.87C25.8781 1.75 26.3821 1.75 26.7672 1.94619C27.1059 2.11876 27.3812 2.39413 27.5538 2.73282C27.75 3.11786 27.75 3.62191 27.75 4.63V24.37C27.75 25.3781 27.75 25.8821 27.5538 26.2672C27.3812 26.6059 27.1059 26.8812 26.7672 27.0538C26.3821 27.25 25.8781 27.25 24.87 27.25H5.13C4.12191 27.25 3.61786 27.25 3.23282 27.0538C2.89413 26.8812 2.61876 26.6059 2.44619 26.2672C2.25 25.8821 2.25 25.3781 2.25 24.37V4.63C2.25 3.62191 2.25 3.11786 2.44619 2.73282C2.61876 2.39413 2.89413 2.11876 3.23282 1.94619C3.61786 1.75 4.12191 1.75 5.13 1.75H6" stroke="#9A9A9A" stroke-width="3"/>
<path d="M27.75 16.75H23.1915C22.4958 16.75 22.1479 16.75 21.886 16.9388C21.6242 17.1275 21.5142 17.4575 21.2942 18.1175L20.7058 19.8825C20.4858 20.5425 20.3758 20.8725 20.114 21.0612C19.8521 21.25 19.5042 21.25 18.8085 21.25H11.1915C10.4958 21.25 10.1479 21.25 9.88605 21.0612C9.62416 20.8725 9.51416 20.5425 9.29415 19.8825L8.70585 18.1175C8.48584 17.4575 8.37584 17.1275 8.11395 16.9388C7.85206 16.75 7.5042 16.75 6.80848 16.75H2.25M21.25 18.25H8.75" stroke="#9A9A9A" stroke-width="3"/>
<path d="M27.75 9.25H23.1915C22.4958 9.25 22.1479 9.25 21.886 9.43876C21.6242 9.62752 21.5142 9.95753 21.2942 10.6175L20.7058 12.3825C20.4858 13.0425 20.3758 13.3725 20.114 13.5612C19.8521 13.75 19.5042 13.75 18.8085 13.75H11.1915C10.4958 13.75 10.1479 13.75 9.88605 13.5612C9.62416 13.3725 9.51416 13.0425 9.29415 12.3825L8.70585 10.6175C8.48584 9.95752 8.37584 9.62752 8.11395 9.43876C7.85206 9.25 7.5042 9.25 6.80848 9.25H2.25M21.25 10.75H8.75" stroke="#9A9A9A" stroke-width="3"/>
<path d="M24.75 1.75H23.1915C22.4958 1.75 22.1479 1.75 21.886 1.93876C21.6242 2.12752 21.5142 2.45753 21.2942 3.11754L20.7058 4.88246C20.4858 5.54248 20.3758 5.87248 20.114 6.06124C19.8521 6.25 19.5042 6.25 18.8085 6.25H11.1915C10.4958 6.25 10.1479 6.25 9.88605 6.06124C9.62416 5.87248 9.51416 5.54247 9.29415 4.88246L8.70585 3.11754C8.48584 2.45752 8.37584 2.12752 8.11395 1.93876C7.85206 1.75 7.5042 1.75 6.80848 1.75H5.25M21.25 3.25H8.75" stroke="#9A9A9A" stroke-width="3"/>
</svg>
